<svg width="1024" height="1024" viewBox="0 0 1024 1024" fill="none" xmlns="http://www.w3.org/2000/svg">
<path d="M123.668 830H900.332C982.353 830 1024 788.672 1024 708.227V315.774C1024 235.327 982.353 194 900.332 194H123.668C41.3288 194 0 235.012 0 315.774V708.227C0 788.989 41.3288 830 123.668 830ZM154.188 413.571C142.425 413.571 135.749 406.63 135.749 395.274V358.679C135.749 347.321 142.425 340.381 154.188 340.381H190.748C202.511 340.381 209.506 347.321 209.506 358.679V395.274C209.506 406.63 202.511 413.571 190.748 413.571H154.188ZM289.303 413.571C277.538 413.571 270.863 406.63 270.863 395.274V358.679C270.863 347.321 277.538 340.381 289.303 340.381H326.179C337.626 340.381 344.619 347.321 344.619 358.679V395.274C344.619 406.63 337.626 413.571 326.179 413.571H289.303ZM424.415 413.571C413.288 413.571 406.295 406.63 406.295 395.274V358.679C406.295 347.321 413.288 340.381 424.415 340.381H461.294C472.738 340.381 480.051 347.321 480.051 358.679V395.274C480.051 406.63 472.738 413.571 461.294 413.571H424.415ZM559.846 413.571C548.401 413.571 541.408 406.63 541.408 395.274V358.679C541.408 347.321 548.401 340.381 559.846 340.381H596.724C608.169 340.381 615.164 347.321 615.164 358.679V395.274C615.164 406.63 608.169 413.571 596.724 413.571H559.846ZM695.278 413.571C683.516 413.571 676.521 406.63 676.521 395.274V358.679C676.521 347.321 683.516 340.381 695.278 340.381H731.839C743.601 340.381 750.277 347.321 750.277 358.679V395.274C750.277 406.63 743.601 413.571 731.839 413.571H695.278ZM830.391 413.571C818.629 413.571 811.634 406.63 811.634 395.274V358.679C811.634 347.321 818.629 340.381 830.391 340.381H866.952C878.714 340.381 885.39 347.321 885.39 358.679V395.274C885.39 406.63 878.714 413.571 866.952 413.571H830.391ZM154.188 547.963C142.425 547.963 135.749 540.709 135.749 529.667V492.756C135.749 481.714 142.425 474.458 154.188 474.458H190.748C202.511 474.458 209.506 481.714 209.506 492.756V529.667C209.506 540.709 202.511 547.963 190.748 547.963H154.188ZM289.303 547.963C277.538 547.963 270.863 540.709 270.863 529.667V492.756C270.863 481.714 277.538 474.458 289.303 474.458H326.179C337.626 474.458 344.619 481.714 344.619 492.756V529.667C344.619 540.709 337.626 547.963 326.179 547.963H289.303ZM424.415 547.963C413.288 547.963 406.295 540.709 406.295 529.667V492.756C406.295 481.714 413.288 474.458 424.415 474.458H461.294C472.738 474.458 480.051 481.714 480.051 492.756V529.667C480.051 540.709 472.738 547.963 461.294 547.963H424.415ZM559.846 547.963C548.401 547.963 541.408 540.709 541.408 529.667V492.756C541.408 481.714 548.401 474.458 559.846 474.458H596.724C608.169 474.458 615.164 481.714 615.164 492.756V529.667C615.164 540.709 608.169 547.963 596.724 547.963H559.846ZM695.278 547.963C683.516 547.963 676.521 540.709 676.521 529.667V492.756C676.521 481.714 683.516 474.458 695.278 474.458H731.839C743.601 474.458 750.277 481.714 750.277 492.756V529.667C750.277 540.709 743.601 547.963 731.839 547.963H695.278ZM830.391 547.963C818.629 547.963 811.634 540.709 811.634 529.667V492.756C811.634 481.714 818.629 474.458 830.391 474.458H866.952C878.714 474.458 885.39 481.714 885.39 492.756V529.667C885.39 540.709 878.714 547.963 866.952 547.963H830.391ZM154.188 682.042C142.425 682.042 135.749 675.101 135.749 663.744V627.148C135.749 615.791 142.425 608.852 154.188 608.852H190.748C202.511 608.852 209.506 615.791 209.506 627.148V663.744C209.506 675.101 202.511 682.042 190.748 682.042H154.188ZM292.798 682.042C279.129 682.042 270.863 673.839 270.863 660.275V630.619C270.863 616.738 279.129 608.852 292.798 608.852H728.341C742.329 608.852 750.277 616.738 750.277 630.619V660.275C750.277 673.839 742.329 682.042 728.341 682.042H292.798ZM830.391 682.042C818.629 682.042 811.634 675.101 811.634 663.744V627.148C811.634 615.791 818.629 608.852 830.391 608.852H866.952C878.714 608.852 885.39 615.791 885.39 627.148V663.744C885.39 675.101 878.714 682.042 866.952 682.042H830.391Z" fill="black"/>
</svg>
